<svg width="15" height="8" viewBox="0 0 15 8" fill="none" xmlns="http://www.w3.org/2000/svg">
<path d="M1.93241 0.629218C1.7177 0.629218 1.5237 0.682321 1.35043 0.788514C1.17715 0.889405 1.03024 1.04074 0.909701 1.24251C0.789164 1.43898 0.696869 1.68057 0.632835 1.9673C0.568801 2.24872 0.53678 2.56731 0.53678 2.92308C0.53678 3.39035 0.587633 3.79655 0.689339 4.14169C0.794814 4.48683 0.949253 4.75233 1.15266 4.93817C1.35985 5.12401 1.61787 5.21694 1.92676 5.21694C2.1038 5.21694 2.27143 5.19569 2.42964 5.15322C2.58784 5.11074 2.74228 5.05764 2.89296 4.99392V5.61518C2.74228 5.69482 2.58596 5.75323 2.42399 5.7904C2.26578 5.82757 2.07555 5.84615 1.8533 5.84615C1.44271 5.84615 1.09993 5.72668 0.824946 5.48774C0.549961 5.2488 0.342786 4.90896 0.203411 4.46825C0.0678038 4.02753 0 3.50982 0 2.91511C0 2.48501 0.0414353 2.09209 0.124307 1.73632C0.210945 1.38056 0.335252 1.0726 0.497228 0.812408C0.662967 0.552221 0.866379 0.353102 1.10746 0.215049C1.34855 0.0716832 1.62541 0 1.93806 0C2.14524 0 2.34488 0.0292084 2.53699 0.0876127C2.7291 0.146017 2.90049 0.228328 3.05117 0.334521L2.84776 0.939845C2.72345 0.860197 2.58408 0.788514 2.42964 0.724796C2.27896 0.661078 2.11322 0.629218 1.93241 0.629218ZM4.03905 3.5961C4.22363 3.5961 4.36017 3.65319 4.4487 3.76734C4.53722 3.8815 4.58148 4.06337 4.58148 4.31293V5.76651H4.40067L4.35264 5.46384H4.34134C4.29802 5.54084 4.25282 5.60588 4.20573 5.65898C4.16053 5.70942 4.1078 5.74659 4.04752 5.77049C3.98914 5.79438 3.91757 5.80633 3.83281 5.80633C3.74241 5.80633 3.66048 5.78377 3.58702 5.73863C3.51545 5.69349 3.45895 5.62447 3.41751 5.53154C3.37608 5.43597 3.35536 5.3165 3.35536 5.17313C3.35536 4.96073 3.41469 4.79745 3.53335 4.6833C3.652 4.56647 3.83469 4.50276 4.08143 4.49214L4.33852 4.48019V4.35276C4.33852 4.17488 4.31121 4.05143 4.25659 3.98239C4.20196 3.91336 4.12475 3.87885 4.02492 3.87885C3.94582 3.87885 3.87048 3.89611 3.79891 3.93062C3.72734 3.96248 3.66048 3.99966 3.59832 4.04213L3.52205 3.77929C3.58797 3.72885 3.66613 3.68636 3.75653 3.65186C3.84694 3.61468 3.94111 3.5961 4.03905 3.5961ZM4.1125 4.73507C3.92416 4.74568 3.79326 4.78817 3.71981 4.8625C3.64823 4.93684 3.61245 5.04171 3.61245 5.17711C3.61245 5.29658 3.63788 5.3842 3.68873 5.43995C3.74146 5.4957 3.80833 5.52358 3.88932 5.52358C4.01739 5.52358 4.1238 5.47446 4.20856 5.37623C4.29331 5.27534 4.33569 5.12136 4.33569 4.91427V4.72312L4.1125 4.73507ZM6.67364 3.63194V5.76651H6.45045V4.40453C6.45045 4.34877 6.4514 4.29037 6.45328 4.2293C6.45705 4.16823 6.46081 4.1085 6.46458 4.05009H6.4561L5.9617 5.76651H5.75264L5.27236 4.05009H5.26389C5.26766 4.1085 5.26954 4.16823 5.26954 4.2293C5.27142 4.29037 5.27236 4.35276 5.27236 4.41647V5.76651H5.04918V3.63194H5.37972L5.85717 5.34835L6.3431 3.63194H6.67364ZM7.76442 5.80633C7.63069 5.80633 7.5111 5.76784 7.40562 5.69084C7.30204 5.61384 7.22011 5.49437 7.15983 5.33243C7.10145 5.17048 7.07225 4.96339 7.07225 4.71117C7.07225 4.44833 7.10333 4.23462 7.16548 4.07001C7.22764 3.9054 7.31145 3.78461 7.41692 3.70761C7.52428 3.63061 7.64576 3.59212 7.78137 3.59212C7.85859 3.59212 7.93298 3.60407 8.00456 3.62796C8.07613 3.6492 8.13451 3.67575 8.17972 3.70761L8.10344 3.99832C8.05823 3.97443 8.0055 3.95187 7.94523 3.93062C7.88495 3.90938 7.82845 3.89876 7.77572 3.89876C7.67401 3.89876 7.5902 3.92929 7.52428 3.99036C7.45836 4.05143 7.40939 4.14169 7.37737 4.26116C7.34535 4.38063 7.32934 4.52931 7.32934 4.70719C7.32934 4.8771 7.34535 5.0218 7.37737 5.14127C7.40939 5.26074 7.45742 5.35101 7.52145 5.41207C7.58549 5.47314 7.66554 5.50367 7.76159 5.50367C7.84447 5.50367 7.91698 5.49172 7.97913 5.46783C8.04316 5.44393 8.10156 5.41472 8.15429 5.38021V5.69084C8.10344 5.72801 8.04693 5.75589 7.98478 5.77447C7.92451 5.79571 7.85105 5.80633 7.76442 5.80633ZM9.83093 4.69524C9.83093 4.87312 9.81398 5.0311 9.78008 5.16915C9.74803 5.30455 9.70098 5.42004 9.63882 5.51562C9.57852 5.61119 9.50419 5.68421 9.41563 5.73465C9.32903 5.78244 9.232 5.80633 9.12464 5.80633C9.02479 5.80633 8.93253 5.78244 8.84778 5.73465C8.76302 5.68421 8.68957 5.61119 8.62741 5.51562C8.56526 5.42004 8.51626 5.30455 8.48051 5.16915C8.4466 5.0311 8.42965 4.87312 8.42965 4.69524C8.42965 4.45895 8.45791 4.25983 8.51441 4.09788C8.57091 3.93327 8.65187 3.8085 8.75737 3.72354C8.86287 3.63593 8.98806 3.59212 9.13312 3.59212C9.27058 3.59212 9.39118 3.63593 9.49474 3.72354C9.60024 3.8085 9.68217 3.93327 9.74053 4.09788C9.80083 4.25983 9.83093 4.45895 9.83093 4.69524ZM8.68674 4.69524C8.68674 4.8625 8.70184 5.00852 8.73195 5.13331C8.76399 5.25543 8.8129 5.34969 8.87885 5.41606C8.9448 5.48242 9.02859 5.51562 9.13029 5.51562C9.232 5.51562 9.31578 5.48242 9.38173 5.41606C9.44768 5.34969 9.49571 5.25543 9.52582 5.13331C9.55786 5.00852 9.57384 4.8625 9.57384 4.69524C9.57384 4.52533 9.55786 4.38063 9.52582 4.26116C9.49377 4.14169 9.44486 4.05009 9.37891 3.98638C9.3149 3.92001 9.23103 3.88682 9.12747 3.88682C8.97306 3.88682 8.86093 3.9585 8.79127 4.10187C8.72162 4.24523 8.68674 4.44302 8.68674 4.69524ZM10.4736 3.63194V4.52002H11.2957V3.63194H11.5443V5.76651H11.2957V4.81471H10.4736V5.76651H10.225V3.63194H10.4736ZM13.3403 4.69524C13.3403 4.87312 13.3234 5.0311 13.2895 5.16915C13.2574 5.30455 13.2103 5.42004 13.1482 5.51562C13.0879 5.61119 13.0136 5.68421 12.925 5.73465C12.8384 5.78244 12.7414 5.80633 12.634 5.80633C12.5342 5.80633 12.4419 5.78244 12.3572 5.73465C12.2724 5.68421 12.1989 5.61119 12.1368 5.51562C12.0746 5.42004 12.0256 5.30455 11.9899 5.16915C11.956 5.0311 11.939 4.87312 11.939 4.69524C11.939 4.45895 11.9673 4.25983 12.0238 4.09788C12.0803 3.93327 12.1612 3.8085 12.2667 3.72354C12.3722 3.63593 12.4974 3.59212 12.6425 3.59212C12.78 3.59212 12.9006 3.63593 13.0041 3.72354C13.1096 3.8085 13.1915 3.93327 13.2499 4.09788C13.3102 4.25983 13.3403 4.45895 13.3403 4.69524ZM12.1961 4.69524C12.1961 4.8625 12.2112 5.00852 12.2413 5.13331C12.2734 5.25543 12.3223 5.34969 12.3882 5.41606C12.4542 5.48242 12.538 5.51562 12.6397 5.51562C12.7414 5.51562 12.8252 5.48242 12.8911 5.41606C12.9571 5.34969 13.0051 5.25543 13.0352 5.13331C13.0672 5.00852 13.0832 4.8625 13.0832 4.69524C13.0832 4.52533 13.0672 4.38063 13.0352 4.26116C13.0031 4.14169 12.9542 4.05009 12.8883 3.98638C12.8243 3.92001 12.7404 3.88682 12.6368 3.88682C12.4824 3.88682 12.3703 3.9585 12.3006 4.10187C12.231 4.24523 12.1961 4.44302 12.1961 4.69524ZM14.952 4.16957C14.952 4.30232 14.9237 4.40586 14.8672 4.48019C14.8107 4.55453 14.7382 4.60498 14.6497 4.63152V4.64745C14.7439 4.66603 14.8258 4.71382 14.8955 4.79082C14.9651 4.86515 15 4.98198 15 5.14127C15 5.23153 14.9877 5.31516 14.9633 5.39216C14.9407 5.46916 14.9049 5.53553 14.8559 5.59128C14.8069 5.64703 14.7439 5.69084 14.6666 5.7227C14.5894 5.75191 14.4962 5.76651 14.3869 5.76651H13.7343V3.63194H14.3841C14.4915 3.63194 14.5875 3.6492 14.6723 3.68371C14.7589 3.71557 14.8267 3.77133 14.8757 3.85098C14.9265 3.92797 14.952 4.03416 14.952 4.16957ZM14.7429 5.14127C14.7429 5.01915 14.71 4.93153 14.644 4.87843C14.5781 4.82533 14.4811 4.79878 14.353 4.79878H13.9829V5.48376H14.3587C14.483 5.48376 14.5781 5.45853 14.644 5.40809C14.71 5.35499 14.7429 5.26606 14.7429 5.14127ZM14.7005 4.21337C14.7005 4.11248 14.6741 4.03948 14.6214 3.99434C14.5706 3.94655 14.4868 3.92266 14.37 3.92266H13.9829V4.50807H14.3248C14.4472 4.50807 14.5405 4.48418 14.6045 4.43639C14.6685 4.3886 14.7005 4.31426 14.7005 4.21337Z" fill="#FFC011"/>
<path d="M1.88186 6.17736V7.43631H1.62422V6.35352H0.813207V7.43631H0.555557V6.17736H1.88186ZM2.98866 6.15387C3.12334 6.15387 3.23849 6.17736 3.33414 6.22433C3.43172 6.27131 3.5059 6.33786 3.55666 6.42398C3.60936 6.50854 3.63571 6.60797 3.63571 6.72228V6.84676H2.56119C2.56509 6.98925 2.60999 7.09809 2.69587 7.17325C2.78371 7.24685 2.9057 7.28364 3.06185 7.28364C3.1614 7.28364 3.24923 7.27659 3.32536 7.2625C3.40343 7.24685 3.48346 7.22492 3.56544 7.19674V7.37759C3.48541 7.40578 3.40636 7.42613 3.32829 7.43866C3.2502 7.45275 3.15749 7.4598 3.05014 7.4598C2.90179 7.4598 2.77004 7.43553 2.65488 7.38699C2.54166 7.33845 2.45286 7.26641 2.38845 7.1709C2.32599 7.07381 2.29476 6.9556 2.29476 6.81623C2.29476 6.67844 2.32306 6.56021 2.37967 6.46156C2.43823 6.36291 2.51922 6.28696 2.62268 6.23373C2.72808 6.18049 2.85007 6.15387 2.98866 6.15387ZM2.98573 6.32298C2.86276 6.32298 2.76516 6.35508 2.69295 6.41928C2.62268 6.48191 2.58071 6.56961 2.56705 6.68235H3.36635C3.36635 6.61032 3.35267 6.54768 3.32536 6.49445C3.29803 6.44121 3.25606 6.39971 3.19946 6.36996C3.1448 6.33864 3.07356 6.32298 2.98573 6.32298ZM4.78188 6.15387C4.97512 6.15387 5.13029 6.20789 5.2474 6.31594C5.36642 6.42398 5.426 6.58683 5.426 6.80449C5.426 6.94698 5.39863 7.06755 5.34402 7.1662C5.29132 7.26329 5.21608 7.33688 5.11858 7.38699C5.02284 7.43553 4.90968 7.4598 4.77895 7.4598C4.69888 7.4598 4.62758 7.45119 4.56522 7.43396C4.50271 7.41674 4.44898 7.39482 4.40419 7.3682C4.36115 7.34001 4.32411 7.30948 4.29293 7.27659H4.27536C4.27917 7.30322 4.28312 7.33688 4.28708 7.37759C4.29088 7.41831 4.29293 7.45354 4.29293 7.48329V8.00002H4.03528V6.17736H4.24609L4.28122 6.34882H4.29293C4.32411 6.3128 4.36115 6.27992 4.40419 6.25017C4.44898 6.22042 4.50169 6.19693 4.56229 6.17971C4.62465 6.16248 4.69785 6.15387 4.78188 6.15387ZM4.73503 6.32768C4.62963 6.32768 4.54473 6.34412 4.48031 6.37701C4.4159 6.40833 4.36906 6.45608 4.33978 6.52028C4.3105 6.58449 4.29484 6.66591 4.29293 6.76456V6.80449C4.29293 6.90783 4.30655 6.99553 4.33392 7.06755C4.36115 7.13958 4.40712 7.19439 4.47153 7.23197C4.53784 7.26955 4.62758 7.28834 4.74089 7.28834C4.83648 7.28834 4.91451 7.2672 4.97512 7.22492C5.03748 7.18264 5.08345 7.12548 5.11272 7.05346C5.14391 6.97986 5.15957 6.89609 5.15957 6.80214C5.15957 6.65807 5.12444 6.54298 5.05417 6.45686C4.9858 6.37075 4.87938 6.32768 4.73503 6.32768ZM6.44254 6.15387C6.57722 6.15387 6.69243 6.17736 6.78803 6.22433C6.88567 6.27131 6.95989 6.33786 7.01054 6.42398C7.06324 6.50854 7.08959 6.60797 7.08959 6.72228V6.84676H6.01508C6.01903 6.98925 6.06398 7.09809 6.14976 7.17325C6.2376 7.24685 6.35969 7.28364 6.51574 7.28364C6.61529 7.28364 6.70312 7.27659 6.77924 7.2625C6.85742 7.24685 6.93735 7.22492 7.01933 7.19674V7.37759C6.9394 7.40578 6.86035 7.42613 6.78217 7.43866C6.70415 7.45275 6.61148 7.4598 6.50403 7.4598C6.35573 7.4598 6.22398 7.43553 6.10877 7.38699C5.99561 7.33845 5.90675 7.26641 5.84234 7.1709C5.77998 7.07381 5.74865 6.9556 5.74865 6.81623C5.74865 6.67844 5.77705 6.56021 5.83356 6.46156C5.89211 6.36291 5.97321 6.28696 6.07657 6.23373C6.18197 6.18049 6.30406 6.15387 6.44254 6.15387ZM6.43962 6.32298C6.31665 6.32298 6.21915 6.35508 6.14683 6.41928C6.07657 6.48191 6.0347 6.56961 6.02094 6.68235H6.82023C6.82023 6.61032 6.80662 6.54768 6.77924 6.49445C6.75202 6.44121 6.71 6.39971 6.65335 6.36996C6.59874 6.33864 6.52745 6.32298 6.43962 6.32298ZM8.75099 6.49445C8.75099 6.57274 8.72171 6.63381 8.66316 6.67765C8.6046 6.72149 8.5295 6.75125 8.43771 6.76691V6.7763C8.53536 6.78726 8.62026 6.81544 8.69244 6.86086C8.76475 6.9047 8.80076 6.9736 8.80076 7.06755C8.80076 7.12079 8.78817 7.17011 8.7627 7.21553C8.73928 7.26094 8.70224 7.30008 8.65145 7.33297C8.60079 7.36585 8.53536 7.39169 8.45528 7.41048C8.37535 7.4277 8.27873 7.43631 8.16543 7.43631H7.4891V6.17736H8.1625C8.27375 6.17736 8.3733 6.18754 8.46114 6.20789C8.55102 6.22668 8.62129 6.25957 8.67194 6.30654C8.72464 6.35196 8.75099 6.41459 8.75099 6.49445ZM8.53433 7.06755C8.53433 6.99553 8.50022 6.94385 8.43186 6.91253C8.36364 6.88121 8.26307 6.86555 8.13029 6.86555H7.74675V7.26955H8.13615C8.26497 7.26955 8.36364 7.25467 8.43186 7.22492C8.50022 7.1936 8.53433 7.14115 8.53433 7.06755ZM8.49041 6.52028C8.49041 6.46078 8.46319 6.41772 8.40844 6.3911C8.35573 6.36291 8.26892 6.34882 8.14786 6.34882H7.74675V6.69409H8.10101C8.22793 6.69409 8.32455 6.68 8.39087 6.65181C8.45733 6.62363 8.49041 6.57979 8.49041 6.52028ZM9.78217 6.15387C9.91685 6.15387 10.0319 6.17736 10.1277 6.22433C10.2252 6.27131 10.2994 6.33786 10.3502 6.42398C10.4029 6.50854 10.4292 6.60797 10.4292 6.72228V6.84676H9.35471C9.35852 6.98925 9.40346 7.09809 9.48939 7.17325C9.57723 7.24685 9.69917 7.28364 9.85537 7.28364C9.95492 7.28364 10.0427 7.27659 10.1189 7.2625C10.1969 7.24685 10.277 7.22492 10.359 7.19674V7.37759C10.2789 7.40578 10.1998 7.42613 10.1218 7.43866C10.0436 7.45275 9.95096 7.4598 9.84366 7.4598C9.69522 7.4598 9.56346 7.43553 9.4484 7.38699C9.33509 7.33845 9.24638 7.26641 9.18197 7.1709C9.11946 7.07381 9.08828 6.9556 9.08828 6.81623C9.08828 6.67844 9.11653 6.56021 9.17318 6.46156C9.23174 6.36291 9.3127 6.28696 9.41619 6.23373C9.5216 6.18049 9.64354 6.15387 9.78217 6.15387ZM9.77924 6.32298C9.65628 6.32298 9.55863 6.35508 9.48646 6.41928C9.41619 6.48191 9.37418 6.56961 9.36057 6.68235H10.1599C10.1599 6.61032 10.1461 6.54768 10.1189 6.49445C10.0915 6.44121 10.0495 6.39971 9.99298 6.36996C9.93823 6.33864 9.86708 6.32298 9.77924 6.32298ZM11.2415 6.15387C11.3606 6.15387 11.4641 6.16718 11.5519 6.1938C11.6397 6.21885 11.708 6.25643 11.7568 6.30654C11.8056 6.35508 11.83 6.41459 11.83 6.48505C11.83 6.56177 11.8037 6.62284 11.751 6.66826C11.6983 6.7121 11.626 6.7442 11.5343 6.76456V6.77395C11.5967 6.78804 11.6544 6.80762 11.7071 6.83267C11.7598 6.85772 11.8016 6.8906 11.833 6.93132C11.8661 6.97204 11.8827 7.02449 11.8827 7.08869C11.8827 7.15759 11.8583 7.22022 11.8095 7.27659C11.7627 7.33297 11.6895 7.37759 11.59 7.41048C11.4923 7.44336 11.3664 7.4598 11.2123 7.4598C11.1381 7.4598 11.0668 7.45666 10.9985 7.45041C10.9321 7.44415 10.8716 7.43475 10.817 7.42222C10.7643 7.40969 10.7175 7.39482 10.6765 7.37759V7.19204C10.7428 7.21709 10.8208 7.2398 10.9107 7.26015C11.0023 7.28051 11.1019 7.29069 11.2093 7.29069C11.2874 7.29069 11.3576 7.28364 11.4201 7.26955C11.4846 7.25546 11.5352 7.23353 11.5724 7.20378C11.6094 7.17246 11.628 7.13018 11.628 7.07695C11.628 7.02841 11.6113 6.98925 11.5782 6.95951C11.545 6.92819 11.4952 6.9047 11.4289 6.88904C11.3645 6.87339 11.2815 6.86555 11.1801 6.86555H10.9693V6.69644H11.1391C11.2738 6.69644 11.3811 6.68235 11.4611 6.65416C11.5431 6.62442 11.5841 6.5743 11.5841 6.50384C11.5841 6.44433 11.5528 6.39971 11.4904 6.36996C11.4298 6.34021 11.342 6.32533 11.2269 6.32533C11.141 6.32533 11.0649 6.33238 10.9985 6.34647C10.9341 6.359 10.8628 6.37857 10.7848 6.40519L10.694 6.24078C10.7779 6.21103 10.8658 6.1891 10.9575 6.17501C11.0492 6.16092 11.1439 6.15387 11.2415 6.15387ZM12.87 6.15387C13.0047 6.15387 13.1199 6.17736 13.2155 6.22433C13.3131 6.27131 13.3874 6.33786 13.438 6.42398C13.4907 6.50854 13.5171 6.60797 13.5171 6.72228V6.84676H12.4425C12.4465 6.98925 12.4914 7.09809 12.5772 7.17325C12.6651 7.24685 12.7872 7.28364 12.9432 7.28364C13.0428 7.28364 13.1306 7.27659 13.2067 7.2625C13.2849 7.24685 13.3648 7.22492 13.4468 7.19674V7.37759C13.3669 7.40578 13.2878 7.42613 13.2096 7.43866C13.1316 7.45275 13.0389 7.4598 12.9315 7.4598C12.7832 7.4598 12.6514 7.43553 12.5362 7.38699C12.4231 7.33845 12.3342 7.26641 12.2698 7.1709C12.2074 7.07381 12.1761 6.9556 12.1761 6.81623C12.1761 6.67844 12.2045 6.56021 12.261 6.46156C12.3196 6.36291 12.4007 6.28696 12.504 6.23373C12.6094 6.18049 12.7315 6.15387 12.87 6.15387ZM12.8671 6.32298C12.7441 6.32298 12.6466 6.35508 12.5743 6.41928C12.504 6.48191 12.4622 6.56961 12.4484 6.68235H13.2477C13.2477 6.61032 13.2341 6.54768 13.2067 6.49445C13.1795 6.44121 13.1375 6.39971 13.0808 6.36996C13.0262 6.33864 12.9549 6.32298 12.8671 6.32298ZM15 6.35117H14.4876V7.43631H14.2329V6.35117H13.7264V6.17736H15V6.35117Z" fill="#FFC011"/>
</svg>
