<?xml version="1.0" ?><svg id="Layer_1" style="enable-background:new 0 0 100 100;" version="1.1" viewBox="0 0 100 100" xml:space="preserve" xmlns="http://www.w3.org/2000/svg" xmlns:xlink="http://www.w3.org/1999/xlink"><path d="M18.38,70.24c0.26,0.48,0.77,0.79,1.32,0.79h14.94c3.29,5.51,8.51,9.63,14.72,11.07c0.11,0.03,0.22,0.04,0.34,0.04  s0.23-0.01,0.34-0.04c10.71-2.48,18.49-12.89,18.49-24.75v-4.32h8.32l-4.38,6.68c-0.33,0.5-0.33,1.15,0,1.64l4.38,6.68h-8.59  c-0.83,0-1.5,0.67-1.5,1.5s0.67,1.5,1.5,1.5h11.37c0.55,0,1.06-0.3,1.32-0.79c0.26-0.48,0.24-1.07-0.06-1.54l-5.36-8.18l5.36-8.18  c0.3-0.46,0.33-1.05,0.06-1.54c-0.26-0.48-0.77-0.79-1.32-0.79h-11.1v-2.41c0-0.61-0.36-1.15-0.92-1.39l-17.33-7.2  c-0.37-0.15-0.78-0.15-1.15,0l-17.33,7.2c-0.56,0.23-0.92,0.78-0.92,1.39v9.73c0,3.78,0.8,7.41,2.22,10.68H22.47l4.38-6.68  c0.33-0.5,0.33-1.15,0-1.64l-4.38-6.68h6.36c0.83,0,1.5-0.67,1.5-1.5s-0.67-1.5-1.5-1.5h-9.14c-0.55,0-1.06,0.3-1.32,0.79  c-0.26,0.48-0.24,1.07,0.06,1.54l5.36,8.18l-5.36,8.18C18.14,69.16,18.11,69.75,18.38,70.24z M33.87,48.62l15.83-6.58l15.83,6.58  v8.72c0,10.36-6.63,19.44-15.83,21.75C40.5,76.78,33.87,67.7,33.87,57.34V48.62z"/><path d="M58.09,25.06c-0.2-0.62-0.78-1.04-1.43-1.04h-4.23L51.12,20c-0.2-0.62-0.78-1.04-1.43-1.04s-1.23,0.42-1.43,1.04l-1.31,4.03  h-4.23c-0.65,0-1.23,0.42-1.43,1.04c-0.2,0.62,0.02,1.29,0.54,1.68l3.42,2.49l-1.31,4.03c-0.2,0.62,0.02,1.29,0.54,1.68  s1.24,0.38,1.76,0l3.42-2.49l3.42,2.49c0.26,0.19,0.57,0.29,0.88,0.29s0.62-0.1,0.88-0.29c0.53-0.38,0.75-1.06,0.54-1.68l-1.31-4.03  l3.42-2.49C58.07,26.36,58.29,25.68,58.09,25.06z M51.47,27.44c-0.53,0.38-0.75,1.06-0.54,1.68l0.22,0.67l-0.57-0.41  c-0.26-0.19-0.57-0.29-0.88-0.29s-0.62,0.1-0.88,0.29l-0.57,0.41l0.22-0.67c0.2-0.62-0.02-1.29-0.54-1.68l-0.57-0.42h0.71  c0.65,0,1.23-0.42,1.43-1.04l0.22-0.67l0.22,0.67c0.2,0.62,0.78,1.04,1.43,1.04h0.71L51.47,27.44z"/><path d="M28.41,35.58l-1.02,3.14c-0.2,0.62,0.02,1.3,0.54,1.68s1.24,0.38,1.76,0l2.67-1.94l2.67,1.94c0.26,0.19,0.57,0.29,0.88,0.29  s0.62-0.1,0.88-0.29c0.53-0.38,0.75-1.06,0.54-1.68l-1.02-3.14L39,33.64c0.53-0.38,0.75-1.06,0.54-1.68  c-0.2-0.62-0.78-1.04-1.43-1.04h-3.3l-1.02-3.14c-0.2-0.62-0.78-1.04-1.43-1.04s-1.23,0.42-1.43,1.04l-1.02,3.14h-3.3  c-0.65,0-1.23,0.42-1.43,1.04c-0.2,0.62,0.02,1.29,0.54,1.68L28.41,35.58z M32.37,33.07c0.22,0.46,0.66,0.78,1.17,0.85  c-0.37,0.35-0.54,0.87-0.45,1.37c-0.22-0.12-0.47-0.19-0.72-0.19c-0.25,0-0.5,0.06-0.72,0.18c0.1-0.5-0.07-1.02-0.45-1.37  C31.71,33.85,32.15,33.53,32.37,33.07z"/><path d="M67.02,26.75c-0.65,0-1.23,0.42-1.43,1.04l-1.02,3.14h-3.3c-0.65,0-1.23,0.42-1.43,1.04c-0.2,0.62,0.02,1.29,0.54,1.68  l2.67,1.94l-1.02,3.14c-0.2,0.62,0.02,1.29,0.54,1.68c0.26,0.19,0.57,0.29,0.88,0.29s0.62-0.1,0.88-0.29l2.67-1.94l2.67,1.94  c0.53,0.38,1.24,0.38,1.76,0s0.75-1.06,0.54-1.68l-1.02-3.14l2.67-1.94c0.53-0.38,0.75-1.06,0.54-1.68  c-0.2-0.62-0.78-1.04-1.43-1.04h-3.3l-1.02-3.14C68.25,27.17,67.67,26.75,67.02,26.75z M67.74,35.28c-0.45-0.25-0.99-0.25-1.44,0  c0.1-0.5-0.07-1.02-0.45-1.37c0.51-0.06,0.95-0.38,1.17-0.85c0.22,0.46,0.66,0.78,1.17,0.85C67.81,34.26,67.64,34.78,67.74,35.28z"/></svg>